<svg aria-hidden="true" style="position: absolute; width: 0; height: 0; overflow: hidden;" version="1.1" xmlns="http://www.w3.org/2000/svg" xmlns:xlink="http://www.w3.org/1999/xlink">
<defs>
<symbol id="icon-grupo-5" viewBox="0 0 43 32">
<path  d="M3.239 26.432c0.155 0.173 0.25 0.402 0.25 0.654 0 0.004-0 0.008-0 0.012v-0.001c0.008 0.158-0.022 0.315-0.089 0.46s-0.169 0.275-0.298 0.38c-0.282 0.195-0.631 0.311-1.007 0.311-0.041 0-0.082-0.001-0.123-0.004l0.006 0h-1.977v-4.215h1.937c0.382-0.023 0.761 0.076 1.073 0.28 0.125 0.096 0.224 0.217 0.289 0.354s0.095 0.286 0.086 0.435c0.001 0.012 0.001 0.026 0.001 0.040 0 0.232-0.086 0.444-0.227 0.606l0.001-0.001c-0.151 0.166-0.354 0.284-0.582 0.328l-0.007 0.001c0.262 0.044 0.499 0.172 0.668 0.36zM0.92 25.796h0.828c0.018 0.001 0.039 0.002 0.060 0.002 0.174 0 0.335-0.053 0.469-0.144l-0.003 0.002c0.062-0.052 0.111-0.116 0.141-0.187s0.043-0.148 0.036-0.225c0.006-0.076-0.007-0.153-0.037-0.224s-0.078-0.135-0.138-0.188c-0.134-0.091-0.299-0.145-0.477-0.145-0.023 0-0.046 0.001-0.068 0.003l0.003-0h-0.814v1.106zM2.355 27.412c0.066-0.053 0.119-0.119 0.153-0.193s0.049-0.155 0.043-0.235c0.005-0.081-0.010-0.163-0.045-0.238s-0.088-0.142-0.155-0.195c-0.142-0.096-0.317-0.154-0.505-0.154-0.020 0-0.040 0.001-0.059 0.002l0.003-0h-0.868v1.159h0.879c0.016 0.001 0.035 0.002 0.053 0.002 0.187 0 0.361-0.055 0.506-0.15l-0.004 0.002zM7.197 28.244l-1.077-1.648h-0.405v1.648h-0.927v-4.215h1.754c0.442-0.028 0.879 0.1 1.221 0.358 0.245 0.229 0.393 0.53 0.417 0.85s-0.078 0.637-0.287 0.894c-0.218 0.224-0.506 0.378-0.829 0.427l-0.008 0.001 1.147 1.685h-1.008zM5.715 26.022h0.758c0.526 0 0.789-0.213 0.789-0.638 0.001-0.011 0.001-0.024 0.001-0.037 0-0.173-0.075-0.328-0.194-0.435l-0.001-0c-0.144-0.109-0.325-0.174-0.522-0.174-0.026 0-0.052 0.001-0.077 0.003l0.003-0h-0.767l0.009 1.283zM12.262 27.396h-1.847l-0.326 0.848h-0.972l1.696-4.168h1.050l1.689 4.168h-0.972l-0.319-0.848zM12.015 26.757l-0.675-1.779-0.675 1.779h1.349zM18.602 28.244h-0.92l-2.062-2.867v2.867h-0.918v-4.215h0.918l2.062 2.883v-2.883h0.92v4.215zM23.852 27.235c-0.19 0.318-0.48 0.577-0.832 0.743-0.4 0.185-0.845 0.276-1.293 0.266h-1.637v-4.215h1.637c0.448-0.011 0.891 0.078 1.293 0.259 0.352 0.163 0.642 0.419 0.832 0.735 0.189 0.343 0.288 0.722 0.288 1.106s-0.099 0.763-0.288 1.106zM22.799 27.134c0.263-0.28 0.407-0.637 0.407-1.006s-0.144-0.726-0.407-1.006c-0.285-0.225-0.649-0.361-1.045-0.361-0.038 0-0.075 0.001-0.112 0.004l0.005-0h-0.639v2.729h0.639c0.031 0.002 0.068 0.003 0.104 0.003 0.397 0 0.762-0.136 1.051-0.364l-0.004 0.003zM12.838 0.581s11.873 4.104 11.621 10.043v10.045s-11.864-4.106-11.617-10.045l-0.005-10.043zM35.037 18.318c2.242-1.413 4.836-2.288 7.544-2.545v-3.145c-3.12 1.101-5.766 3.097-7.544 5.69z"></path>
<path  d="M33.69 19.266c1.835-3.384 5.017-5.995 8.891-7.296v-9.061s-16.909 5.846-16.551 14.304v14.302s0.753-0.262 1.939-0.752c0-0.457 0-0.918 0.054-1.382 0.35-3.926 2.389-7.565 5.668-10.115z"></path>
<path  d="M32.081 24.579c0.099-1.081 0.309-2.076 0.619-3.024l-0.027 0.096c-2.042 2.203-3.278 4.936-3.536 7.815-0.025 0.272-0.038 0.544-0.045 0.824 1.41-0.617 2.478-1.142 3.524-1.702l-0.272 0.133c-0.202-0.878-0.318-1.885-0.318-2.92 0-0.43 0.020-0.855 0.059-1.275l-0.004 0.054zM32.754 24.63c-0.033 0.348-0.052 0.752-0.052 1.161 0 0.917 0.095 1.811 0.276 2.674l-0.015-0.084c4.62-2.531 9.811-6.442 9.611-11.168v-0.412c-3.301 0.338-6.389 1.659-8.79 3.76-0.53 1.19-0.896 2.57-1.026 4.018l-0.004 0.051z"></path>
</symbol>
<symbol id="icon-grupo-6" viewBox="0 0 67 32">
<path   d="M20.696 31.843l-20.696-5.078v-17.866l20.696 5.076v17.868z"></path>
<path   d="M33.724 15.285c-0.271-0.35-0.434-0.794-0.434-1.277 0-0.048 0.002-0.096 0.005-0.143l-0 0.006v-2.050c0-0.628 0.142-1.106 0.428-1.433s0.775-0.489 1.469-0.488c0.652 0 1.115 0.139 1.389 0.417 0.299 0.355 0.444 0.789 0.411 1.226v0.482h-1.167v-0.488c0.001-0.019 0.001-0.042 0.001-0.064 0-0.146-0.013-0.289-0.037-0.429l0.002 0.015c-0.020-0.115-0.081-0.214-0.166-0.283l-0.001-0.001c-0.105-0.071-0.234-0.113-0.374-0.113-0.017 0-0.035 0.001-0.052 0.002l0.002-0c-0.015-0.001-0.033-0.002-0.051-0.002-0.147 0-0.283 0.044-0.396 0.12l0.003-0.002c-0.096 0.077-0.166 0.186-0.192 0.309l-0.001 0.004c-0.029 0.141-0.046 0.303-0.046 0.469 0 0.013 0 0.027 0 0.040l-0-0.002v2.488c-0.018 0.24 0.033 0.48 0.15 0.699 0.058 0.074 0.139 0.133 0.233 0.169s0.198 0.050 0.301 0.039c0.015 0.001 0.032 0.002 0.050 0.002 0.136 0 0.262-0.043 0.365-0.116l-0.002 0.001c0.090-0.075 0.152-0.18 0.174-0.299l0-0.003c0.027-0.165 0.039-0.332 0.036-0.498v-0.505h1.167v0.461c0.033 0.456-0.109 0.909-0.403 1.289-0.268 0.304-0.725 0.457-1.396 0.457s-1.179-0.163-1.466-0.501zM38.583 15.306c-0.295-0.319-0.442-0.784-0.442-1.399v-2.157c0-0.609 0.147-1.070 0.442-1.383s0.788-0.469 1.478-0.467c0.686 0 1.177 0.156 1.471 0.467 0.295 0.313 0.444 0.774 0.444 1.383v2.157c0 0.609-0.15 1.076-0.449 1.397s-0.788 0.482-1.466 0.482c-0.679 0-1.181-0.163-1.478-0.48zM40.605 14.789c0.106-0.2 0.154-0.419 0.14-0.638v-2.64c0.001-0.021 0.002-0.046 0.002-0.071 0-0.203-0.052-0.395-0.143-0.561l0.003 0.006c-0.059-0.076-0.142-0.135-0.238-0.172s-0.203-0.050-0.308-0.037c-0.105-0.013-0.212 0-0.308 0.037s-0.18 0.096-0.24 0.172c-0.090 0.16-0.142 0.351-0.142 0.554 0 0.025 0.001 0.050 0.002 0.075l-0-0.003v2.653c-0.015 0.219 0.033 0.439 0.14 0.638 0.068 0.067 0.152 0.121 0.246 0.158 0.089 0.036 0.192 0.057 0.3 0.057s0.211-0.021 0.306-0.059l-0.006 0.002c0.096-0.038 0.177-0.091 0.246-0.158l-0 0v-0.012zM43.38 9.963h1.256l0.945 3.979 0.966-3.979h1.222l0.123 5.743h-0.904l-0.097-3.992-0.932 3.992h-0.725l-0.966-4.006-0.089 4.006h-0.913l0.114-5.743zM49.301 9.963h1.957c1.127 0 1.691 0.544 1.691 1.631 0 1.041-0.593 1.561-1.78 1.56h-0.667v2.553h-1.208l0.007-5.743zM50.973 12.418c0.119 0.013 0.24 0.004 0.355-0.028s0.22-0.084 0.309-0.154c0.112-0.152 0.179-0.342 0.179-0.549 0-0.035-0.002-0.070-0.006-0.105l0 0.004c0.001-0.019 0.001-0.041 0.001-0.063 0-0.163-0.022-0.32-0.062-0.47l0.003 0.013c-0.017-0.057-0.047-0.111-0.089-0.158s-0.093-0.086-0.153-0.116c-0.141-0.059-0.305-0.094-0.477-0.094-0.022 0-0.044 0.001-0.065 0.002l0.003-0h-0.469v1.716h0.469zM54.691 9.963h1.297l1.331 5.743h-1.126l-0.263-1.324h-1.157l-0.271 1.324h-1.143l1.331-5.743zM55.8 13.717l-0.452-2.411-0.452 2.411h0.903zM58.395 9.963h0.846l1.619 3.276v-3.276h1.003v5.743h-0.804l-1.628-3.42v3.42h-1.036l0.002-5.743zM64.209 13.517l-1.346-3.545h1.133l0.821 2.277 0.771-2.277h1.109l-1.329 3.545v2.19h-1.16v-2.19zM35.589 18.218v0.3h-0.986v2.334h-0.413v-2.334h-0.99v-0.3h2.389zM38.679 20.852h-0.319c-0.003 0-0.006 0-0.009 0-0.030 0-0.058-0.009-0.080-0.026l0 0c-0.023-0.014-0.042-0.035-0.053-0.059l-0-0.001-0.285-0.626h-1.367l-0.285 0.626c-0.009 0.028-0.024 0.052-0.044 0.071l-0 0c-0.024 0.016-0.053 0.025-0.084 0.025-0.002 0-0.004-0-0.006-0h-0.319l1.208-2.634h0.42l1.222 2.624zM36.679 19.874h1.14l-0.483-1.072c-0.032-0.068-0.062-0.151-0.086-0.236l-0.003-0.012c-0.017 0.050-0.031 0.098-0.046 0.14l-0.044 0.11-0.478 1.070zM40.762 20.593c0.076 0.003 0.151 0.003 0.227 0 0.065-0.006 0.13-0.016 0.193-0.031 0.059-0.012 0.117-0.029 0.174-0.048 0.053-0.019 0.106-0.042 0.162-0.065v-0.592h-0.483c-0.012 0.001-0.024-0.001-0.035-0.005s-0.021-0.009-0.030-0.016c-0.014-0.011-0.024-0.029-0.024-0.048v-0.202h0.937v1.010c-0.147 0.091-0.317 0.165-0.497 0.212l-0.013 0.003c-0.099 0.025-0.2 0.043-0.302 0.054-0.106 0.011-0.228 0.017-0.353 0.017h-0c-0.005 0-0.010 0-0.016 0-0.212 0-0.416-0.036-0.606-0.102l0.013 0.004c-0.186-0.065-0.347-0.158-0.485-0.277l0.002 0.002c-0.129-0.115-0.234-0.253-0.309-0.409l-0.003-0.008c-0.070-0.156-0.111-0.338-0.111-0.529 0-0.006 0-0.012 0-0.019v0.001c-0-0.006-0-0.012-0-0.019 0-0.192 0.040-0.375 0.113-0.541l-0.003 0.009c0.069-0.156 0.176-0.298 0.312-0.417 0.138-0.119 0.302-0.212 0.483-0.273 0.207-0.067 0.426-0.1 0.647-0.098 0.112 0 0.225 0.008 0.336 0.023 0.198 0.029 0.377 0.089 0.539 0.175l-0.009-0.004c0.074 0.041 0.144 0.087 0.21 0.138l-0.116 0.163c-0.009 0.015-0.023 0.027-0.039 0.036s-0.036 0.014-0.055 0.014c-0.028-0.001-0.053-0.008-0.076-0.021l0.001 0c-0.049-0.023-0.088-0.044-0.125-0.067l0.007 0.004c-0.046-0.026-0.099-0.050-0.155-0.069l-0.007-0.002c-0.146-0.052-0.314-0.082-0.489-0.082-0.014 0-0.028 0-0.042 0.001l0.002-0c-0.005-0-0.012-0-0.018-0-0.16 0-0.314 0.027-0.458 0.076l0.010-0.003c-0.266 0.085-0.475 0.28-0.578 0.53l-0.002 0.006c-0.051 0.13-0.081 0.281-0.081 0.439s0.030 0.309 0.084 0.447l-0.003-0.008c0.058 0.131 0.14 0.242 0.241 0.331l0.001 0.001c0.099 0.090 0.219 0.162 0.353 0.209 0.154 0.046 0.316 0.063 0.478 0.052zM44.612 20.551h1.319v0.3h-1.722v-2.634h0.413l-0.010 2.334zM47.304 20.852h-0.413v-2.634h0.413v2.634zM48.84 18.23c0.025 0.012 0.046 0.028 0.063 0.048l0 0 1.766 1.986c-0.001-0.014-0.002-0.030-0.002-0.047s0.001-0.033 0.002-0.049l-0 0.002v-1.962h0.36v2.645h-0.208c-0.004 0-0.009 0-0.014 0-0.027 0-0.053-0.006-0.076-0.016l0.001 0c-0.025-0.013-0.047-0.030-0.065-0.050l-0-0-1.764-1.983v2.048h-0.345v-2.634h0.215c0.023 0 0.046 0.004 0.068 0.012zM54.070 18.218v0.29h-1.464v0.87h1.186v0.279h-1.186v0.899h1.464v0.29h-1.889v-2.628h1.889zM10.782 1.95l18.343 4.497v15.757l-18.343-4.495v-15.759zM9.605 0.607v17.867l20.694 5.074v-17.865l-20.694-5.076z"></path>
<path   d="M9.948 1.748l18.104 4.44-7.699 6.649-18.106-4.442 7.702-6.647zM9.605 0.607l-9.605 8.292 20.696 5.076 9.603-8.292-20.694-5.076zM21.861 30.838l8.438-7.287-8.438-2.071v9.358z"></path>
</symbol>
<symbol id="icon-instagram-2" viewBox="0 0 32 32">
<path   d="M31.969 9.408c-0.075-1.7-0.35-2.869-0.744-3.882-0.424-1.111-1.054-2.058-1.85-2.837l-0.001-0.001c-0.779-0.792-1.724-1.419-2.778-1.826l-0.054-0.018c-1.019-0.394-2.182-0.669-3.882-0.744-1.713-0.081-2.257-0.1-6.601-0.1s-4.888 0.019-6.595 0.094c-1.7 0.075-2.869 0.35-3.882 0.744-1.111 0.424-2.058 1.053-2.837 1.849l-0.001 0.001c-0.792 0.78-1.419 1.724-1.826 2.778l-0.018 0.054c-0.394 1.019-0.669 2.182-0.744 3.882-0.081 1.713-0.1 2.257-0.1 6.601s0.019 4.888 0.094 6.595c0.075 1.7 0.35 2.869 0.744 3.882 0.427 1.11 1.056 2.057 1.849 2.837l0.001 0.001c0.78 0.792 1.724 1.419 2.778 1.826l0.054 0.018c1.019 0.394 2.182 0.669 3.882 0.744 1.706 0.075 2.25 0.094 6.595 0.094s4.888-0.019 6.595-0.094c1.7-0.075 2.869-0.35 3.882-0.744 2.157-0.85 3.832-2.525 4.663-4.627l0.019-0.055c0.394-1.019 0.669-2.182 0.744-3.882 0.075-1.707 0.094-2.251 0.094-6.595s-0.006-4.888-0.081-6.595zM29.087 22.473c-0.069 1.563-0.331 2.407-0.55 2.969-0.551 1.4-1.638 2.487-3.002 3.025l-0.036 0.013c-0.563 0.219-1.413 0.481-2.969 0.55-1.688 0.075-2.194 0.094-6.464 0.094s-4.782-0.019-6.464-0.094c-1.563-0.069-2.407-0.331-2.969-0.55-0.721-0.269-1.335-0.676-1.837-1.193l-0.001-0.001c-0.517-0.504-0.923-1.118-1.183-1.804l-0.011-0.034c-0.219-0.563-0.481-1.413-0.55-2.969-0.075-1.688-0.094-2.194-0.094-6.464s0.019-4.782 0.094-6.464c0.069-1.563 0.331-2.407 0.55-2.969 0.269-0.722 0.678-1.337 1.198-1.836l0.002-0.002c0.504-0.517 1.118-0.923 1.804-1.183l0.034-0.011c0.563-0.219 1.413-0.481 2.969-0.55 1.688-0.075 2.194-0.094 6.464-0.094 4.276 0 4.782 0.019 6.464 0.094 1.563 0.069 2.407 0.331 2.969 0.55 0.721 0.269 1.335 0.676 1.837 1.193l0.001 0.001c0.517 0.504 0.923 1.118 1.183 1.804l0.011 0.034c0.219 0.563 0.481 1.413 0.55 2.969 0.075 1.688 0.094 2.194 0.094 6.464s-0.019 4.77-0.094 6.458z"></path>
<path   d="M16.059 7.783c-4.538 0-8.22 3.682-8.22 8.22s3.682 8.22 8.22 8.22 8.22-3.682 8.22-8.22-3.682-8.22-8.22-8.22zM16.059 21.335c-2.901-0.058-5.23-2.423-5.23-5.332s2.329-5.274 5.224-5.332l0.005-0c2.901 0.058 5.23 2.423 5.23 5.332s-2.329 5.274-5.224 5.332l-0.005 0zM26.524 7.458c0 1.060-0.859 1.919-1.919 1.919s-1.919-0.859-1.919-1.919v0c0-1.060 0.859-1.919 1.919-1.919s1.919 0.859 1.919 1.919v0z"></path>
</symbol>
<symbol id="icon-linkedin-1" viewBox="0 0 32 32">
<path   d="M31.992 32v-0.001h0.008v-11.736c0-5.741-1.236-10.164-7.948-10.164-3.227 0-5.392 1.771-6.276 3.449h-0.093v-2.913h-6.364v21.364h6.627v-10.579c0-2.785 0.528-5.479 3.977-5.479 3.399 0 3.449 3.179 3.449 5.657v10.401h6.62zM0.528 10.636h6.635v21.364h-6.635v-21.364zM3.843 0c-2.121 0-3.843 1.721-3.843 3.843s1.721 3.879 3.843 3.879c2.121 0 3.843-1.757 3.843-3.879-0.002-2.122-1.721-3.841-3.843-3.843h-0z"></path>
</symbol>
<symbol id="icon-sobre" viewBox="0 0 43 32">
<path  d="M38.667 0h-34.667c-2.206 0-4 1.794-4 4v24c0 2.206 1.794 4 4 4h34.667c2.206 0 4-1.794 4-4v-24c0-2.206-1.794-4-4-4zM38.667 2.667c0.181 0 0.353 0.038 0.511 0.103l-17.844 15.466-17.844-15.466c0.151-0.065 0.327-0.103 0.511-0.103h34.667zM38.667 29.333h-34.667c-0.736-0.001-1.332-0.597-1.333-1.333v-22.413l17.793 15.421c0.233 0.202 0.539 0.326 0.874 0.326s0.641-0.123 0.876-0.327l-0.002 0.001 17.793-15.421v22.413c0 0.736-0.598 1.333-1.333 1.333z"></path>
</symbol>
<symbol id="icon-telfono-inteligente" viewBox="0 0 20 32">
<path  d="M17 0h-14c-1.654 0-3 1.346-3 3v26c0 1.654 1.346 3 3 3h14c1.654 0 3-1.346 3-3v-26c0-1.654-1.346-3-3-3zM3 2h14c0.552 0 1 0.448 1 1v0 21h-16v-21c0-0.552 0.448-1 1-1v0zM17 30h-14c-0.552 0-1-0.448-1-1v0-3h16v3c0 0.552-0.448 1-1 1v0z"></path>
<path  d="M4.707 27.478c0.391 0.365 0.391 0.956 0 1.321s-1.024 0.365-1.414 0c-0.391-0.365-0.391-0.956 0-1.321s1.024-0.365 1.414 0z"></path>
</symbol>
<symbol id="icon-twitter-1-1" viewBox="0 0 32 32">
<path  d="M32 6.078c-1.1 0.493-2.376 0.857-3.713 1.028l-0.068 0.007c1.36-0.817 2.382-2.078 2.873-3.579l0.013-0.046c-1.198 0.722-2.591 1.273-4.076 1.573l-0.084 0.014c-1.2-1.279-2.9-2.076-4.787-2.076-3.622 0-6.558 2.936-6.558 6.558 0 0.001 0 0.003 0 0.004v-0c0 0.52 0.043 1.021 0.152 1.496-5.454-0.266-10.28-2.88-13.522-6.861-0.564 0.949-0.899 2.092-0.902 3.313v0.001c0 2.272 1.171 4.286 2.914 5.451-1.091-0.030-2.107-0.325-2.994-0.823l0.033 0.017v0.072c0.003 3.165 2.236 5.807 5.213 6.44l0.043 0.008c-0.499 0.136-1.071 0.215-1.662 0.215-0.020 0-0.041-0-0.061-0l0.003 0c-0.419 0-0.843-0.024-1.242-0.112 0.85 2.598 3.261 4.509 6.13 4.57-2.215 1.746-5.046 2.8-8.123 2.8-0.004 0-0.008 0-0.012 0h0.001c-0.538 0-1.053-0.026-1.57-0.091 2.827 1.846 6.287 2.944 10.004 2.944 0.021 0 0.042-0 0.063-0h-0.003c12.072 0 18.672-10 18.672-18.669 0-0.288-0.010-0.57-0.024-0.848 1.299-0.936 2.391-2.065 3.258-3.356l0.030-0.047z"></path>
</symbol>
<symbol id="icon-facebook-1" viewBox="0 0 32 32">
<path  d="M21.329 5.313h2.921v-5.088c-0.504-0.069-2.237-0.225-4.256-0.225-4.212 0-7.097 2.649-7.097 7.519v4.481h-4.648v5.688h4.648v14.312h5.699v-14.311h4.46l0.708-5.688h-5.169v-3.919c0.001-1.644 0.444-2.769 2.735-2.769z"></path>
</symbol>
<symbol id="icon-grupo-1" viewBox="0 0 29 32">
<path  d="M4.174 0.060l4.875 4.615-9.049-0.005v22.391h23.652v-8.561l4.87 4.61v-23.050h-24.348zM23.438 17.958l-13.822-13.085h13.822v13.085zM19.146 23.786h-15.404v-15.059h1.089v14.040h14.315v1.020zM7.38 30.043l-0.569 1.172-0.569-1.172h-0.477l0.83 1.563v0.91h0.431v-0.91l0.829-1.563h-0.476zM8.095 32.515l0.2-0.576h0.958l0.202 0.576h0.448l-0.936-2.473h-0.386l-0.934 2.473h0.447zM8.774 30.567l0.358 1.026h-0.717l0.358-1.026zM11.040 31.534c-0.058 0.087-0.093 0.195-0.093 0.31 0 0.001 0 0.003 0 0.004v-0c-0 0.006-0 0.014-0 0.021 0 0.193 0.085 0.367 0.219 0.486l0.001 0.001c0.147 0.129 0.343 0.194 0.588 0.194s0.455-0.066 0.632-0.199l0.139 0.165h0.479l-0.363-0.43c0.143-0.195 0.214-0.444 0.214-0.749h-0.358c0 0.004 0 0.009 0 0.015 0 0.16-0.038 0.311-0.107 0.445l0.003-0.006-0.477-0.564 0.168-0.122c0.102-0.070 0.188-0.155 0.255-0.255l0.002-0.003c0.048-0.080 0.077-0.176 0.077-0.279 0-0.157-0.066-0.298-0.172-0.397l-0-0c-0.11-0.1-0.257-0.16-0.418-0.16-0.008 0-0.017 0-0.025 0l0.001-0c-0.010-0.001-0.021-0.001-0.033-0.001-0.171 0-0.326 0.065-0.444 0.171l0.001-0c-0.11 0.109-0.178 0.26-0.178 0.428 0 0.011 0 0.022 0.001 0.033l-0-0.002c0 0.079 0.019 0.161 0.056 0.246 0.038 0.085 0.106 0.188 0.202 0.309-0.183 0.131-0.306 0.245-0.369 0.341zM12.156 32.081c-0.106 0.086-0.242 0.138-0.391 0.139h-0c-0.123 0-0.222-0.036-0.296-0.107s-0.11-0.164-0.11-0.279c0-0.132 0.068-0.25 0.204-0.353l0.053-0.037 0.54 0.637zM11.713 30.985c-0.117-0.144-0.175-0.263-0.175-0.358 0-0.083 0.024-0.151 0.071-0.206s0.111-0.082 0.192-0.082c0.075 0 0.136 0.023 0.185 0.070 0.049 0.045 0.073 0.1 0.073 0.165 0 0.003 0 0.006 0 0.009 0 0.092-0.041 0.174-0.105 0.23l-0 0-0.053 0.042-0.189 0.129zM15.738 32.328c0.17-0.148 0.267-0.354 0.292-0.618h-0.428c-0.023 0.177-0.076 0.303-0.161 0.379s-0.212 0.114-0.38 0.114c-0.008 0-0.016 0.001-0.025 0.001-0.164 0-0.309-0.083-0.395-0.21l-0.001-0.002c-0.095-0.14-0.143-0.344-0.143-0.611v-0.219c0.002-0.264 0.053-0.464 0.153-0.599 0.093-0.126 0.24-0.207 0.407-0.207 0.008 0 0.017 0 0.025 0.001l-0.001-0c0.161 0 0.283 0.040 0.365 0.119 0.084 0.078 0.136 0.206 0.156 0.384h0.428c-0.027-0.271-0.124-0.48-0.29-0.628s-0.386-0.222-0.659-0.222c-0.006-0-0.013-0-0.020-0-0.191 0-0.37 0.054-0.521 0.147l0.004-0.002c-0.154 0.096-0.272 0.233-0.355 0.411s-0.124 0.383-0.124 0.616v0.231c0.003 0.228 0.046 0.427 0.127 0.599s0.197 0.305 0.346 0.399c0.143 0.087 0.316 0.139 0.501 0.139 0.007 0 0.014-0 0.021-0l-0.001 0c0.282 0 0.508-0.074 0.678-0.221zM18.263 31.982c0.084-0.183 0.126-0.396 0.126-0.639v-0.138c0-0.008 0-0.016 0-0.025 0-0.22-0.048-0.43-0.133-0.618l0.004 0.009c-0.151-0.335-0.482-0.564-0.866-0.564-0.011 0-0.022 0-0.032 0.001l0.002-0c-0.005-0-0.012-0-0.018-0-0.192 0-0.372 0.055-0.523 0.151l0.004-0.002c-0.159 0.103-0.283 0.247-0.36 0.417l-0.002 0.006c-0.080 0.179-0.127 0.388-0.127 0.607 0 0.011 0 0.022 0 0.033l-0-0.002v0.139c0.001 0.237 0.044 0.446 0.129 0.627 0.081 0.175 0.205 0.317 0.359 0.418l0.004 0.002c0.157 0.097 0.336 0.146 0.537 0.146 0.006 0 0.012 0 0.019 0 0.192 0 0.371-0.054 0.522-0.149l-0.004 0.002c0.158-0.102 0.282-0.246 0.358-0.415l0.002-0.006zM17.803 30.584c0.104 0.146 0.156 0.356 0.156 0.63v0.129c0 0.279-0.052 0.49-0.155 0.635-0.092 0.132-0.243 0.218-0.414 0.218-0.008 0-0.017-0-0.025-0.001l0.001 0c-0.005 0-0.012 0-0.018 0-0.175 0-0.33-0.087-0.423-0.221l-0.001-0.002c-0.105-0.148-0.158-0.358-0.158-0.63v-0.143c0.002-0.266 0.055-0.472 0.16-0.616 0.093-0.133 0.246-0.219 0.419-0.219 0.006 0 0.013 0 0.019 0l-0.001-0c0.19 0 0.337 0.073 0.44 0.219z"></path>
</symbol>
<symbol id="icon-grupo-2" viewBox="0 0 26 32">
<path  d="M10.953 1.934h-0.087c-0.134-0.008-0.269-0.011-0.403-0.015h-0.291c-0.254 0-0.513 0.006-0.771 0.020-0.009-0-0.019-0.001-0.029-0.001s-0.020 0-0.030 0.001l0.001-0c-2.471 0.144-4.765 0.762-6.838 1.764l0.108-0.047-0.277 0.133v14.17l0.648-0.22c0.416-0.152 1.017-0.335 1.626-0.495l0.174-0.039c1.548-0.414 3.33-0.664 5.166-0.688l0.015-0v1.862c-0.232 0.002-0.457 0.008-0.682 0.020h-0.053c-1.345 0.074-2.68 0.279-3.986 0.612-1.804 0.459-3.384 1.092-4.854 1.903l0.105-0.053v-18.174c1.434-0.852 3.093-1.547 4.85-1.997l0.132-0.029c1.407-0.378 3.024-0.599 4.691-0.605h0.278c0.327 0.008 0.646 0.023 0.946 0.046 0.789 0.055 1.572 0.18 2.339 0.373v1.833c-0.653-0.16-1.428-0.282-2.22-0.339l-0.047-0.003-0.046-0.004c-0.158-0.013-0.316-0.027-0.464-0.027zM14.178 3.807c0.406 0.031 0.827 0.046 1.253 0.046 1.757-0.007 3.456-0.237 5.076-0.664l-0.14 0.031c1.803-0.461 3.383-1.095 4.852-1.905l-0.105 0.053v17.85c-1.435 0.852-3.094 1.547-4.851 1.997l-0.132 0.029c-1.407 0.377-3.024 0.597-4.691 0.604h-0.004c-0.036 0-0.078 0-0.12 0-1.222 0-2.409-0.153-3.541-0.442l0.099 0.021v-17.966c0.275 0.063 0.559 0.122 0.847 0.171 0.473 0.080 0.971 0.138 1.457 0.174zM23.262 3.945l-0.648 0.218c-0.596 0.2-1.196 0.379-1.8 0.539-1.613 0.432-3.466 0.683-5.376 0.69h-0.004c-0.423 0-0.811-0.011-1.187-0.036l-0.516-0.034v14.577l0.444 0.039c0.411 0.036 0.835 0.054 1.263 0.054 1.508-0.007 2.967-0.206 4.357-0.575l-0.12 0.027c1.27-0.322 2.372-0.729 3.416-1.236l-0.105 0.046 0.277-0.133v-14.175zM1.752 27.072c-0.175-0.18-0.419-0.292-0.69-0.292-0.011 0-0.021 0-0.032 0l0.002-0c-0.004-0-0.008-0-0.013-0-0.145 0-0.284 0.029-0.41 0.081l0.007-0.003c-0.246 0.099-0.436 0.292-0.531 0.533l-0.002 0.006c-0.047 0.114-0.074 0.247-0.074 0.386 0 0.006 0 0.011 0 0.017v-0.001 2.428c-0.006 0.171 0.027 0.341 0.096 0.498 0.060 0.128 0.142 0.236 0.242 0.324l0.001 0.001c0.093 0.079 0.205 0.139 0.328 0.172l0.006 0.001c0.118 0.033 0.24 0.050 0.363 0.050 0.557-0.008 1.006-0.462 1.006-1.020 0-0.001 0-0.002 0-0.003v0-0.272h-0.635v0.216c0 0.004 0 0.009 0 0.014 0 0.073-0.014 0.142-0.038 0.206l0.001-0.004c-0.022 0.054-0.053 0.099-0.092 0.137l-0 0c-0.073 0.056-0.165 0.090-0.265 0.093h-0.001c-0.010 0.001-0.022 0.002-0.034 0.002-0.108 0-0.203-0.051-0.263-0.131l-0.001-0.001c-0.053-0.085-0.085-0.189-0.085-0.3 0-0.009 0-0.018 0.001-0.026l-0 0.001v-2.264c-0-0.007-0-0.016-0-0.024 0-0.123 0.029-0.24 0.080-0.343l-0.002 0.005c0.059-0.090 0.16-0.148 0.274-0.148 0.013 0 0.026 0.001 0.038 0.002l-0.002-0c0.055-0.002 0.109 0.009 0.158 0.033s0.092 0.059 0.125 0.103c0.066 0.086 0.105 0.194 0.105 0.312 0 0.005-0 0.010-0 0.015l0-0.001v0.21h0.628v-0.247c0-0.003 0-0.006 0-0.009 0-0.15-0.029-0.293-0.081-0.424l0.003 0.008c-0.050-0.133-0.122-0.246-0.212-0.343l0 0zM5.522 27.044c-0.194-0.164-0.446-0.265-0.722-0.267h-0c-0.136 0.001-0.266 0.026-0.387 0.071l0.008-0.003c-0.262 0.095-0.468 0.287-0.578 0.533l-0.003 0.006c-0.058 0.132-0.092 0.286-0.092 0.448 0 0.008 0 0.016 0 0.023l-0-0.001v2.329c-0 0.009-0 0.019-0 0.029 0 0.162 0.034 0.316 0.095 0.455l-0.003-0.007c0.060 0.129 0.143 0.238 0.245 0.325l0.001 0.001c0.094 0.087 0.205 0.157 0.328 0.203l0.007 0.002c0.113 0.043 0.243 0.068 0.379 0.068 0.277 0 0.53-0.104 0.723-0.274l-0.001 0.001c0.205-0.185 0.334-0.451 0.334-0.747 0-0.020-0.001-0.039-0.002-0.058l0 0.003v-2.329c0-0.007 0-0.015 0-0.023 0-0.162-0.034-0.315-0.095-0.454l0.003 0.007c-0.059-0.133-0.14-0.246-0.239-0.34l-0.001-0zM5.226 30.183c0.001 0.010 0.001 0.023 0.001 0.035 0 0.118-0.049 0.225-0.127 0.302l-0 0c-0.080 0.067-0.185 0.108-0.299 0.108s-0.219-0.041-0.3-0.109l0.001 0.001c-0.079-0.076-0.128-0.182-0.128-0.3 0-0.013 0.001-0.026 0.002-0.038l-0 0.002v-2.329c-0.001-0.010-0.001-0.023-0.001-0.035 0-0.118 0.049-0.225 0.127-0.302l0-0c0.080-0.067 0.185-0.108 0.299-0.108s0.219 0.041 0.3 0.109l-0.001-0.001c0.079 0.076 0.128 0.182 0.128 0.3 0 0.013-0.001 0.026-0.002 0.038l0-0.002v2.329zM10.475 31.223v-4.409h-0.61l-0.801 2.334h-0.011l-0.808-2.334h-0.604v4.409h0.63v-2.682h0.011l0.617 1.896h0.314l0.622-1.896h0.011v2.682h0.63zM14.053 27.124c-0.095-0.107-0.214-0.189-0.35-0.239l-0.006-0.002c-0.128-0.043-0.276-0.068-0.43-0.068-0.010 0-0.019 0-0.028 0l0.001-0h-0.936v4.409h0.628v-1.722h0.324c0.016 0.001 0.034 0.001 0.053 0.001 0.187 0 0.364-0.045 0.52-0.124l-0.007 0.003c0.144-0.081 0.261-0.195 0.343-0.333l0.002-0.004c0.070-0.11 0.12-0.239 0.143-0.378l0.001-0.006c0.025-0.166 0.036-0.334 0.034-0.501 0.001-0.021 0.001-0.045 0.001-0.070 0-0.198-0.023-0.392-0.066-0.577l0.003 0.017c-0.044-0.159-0.125-0.295-0.232-0.405l0 0zM13.729 28.468c-0.003 0.084-0.024 0.162-0.059 0.232l0.001-0.003c-0.037 0.068-0.092 0.121-0.16 0.154l-0.002 0.001c-0.076 0.035-0.166 0.056-0.26 0.056-0.013 0-0.025-0-0.038-0.001l0.002 0h-0.287v-1.499h0.324c0.009-0 0.020-0.001 0.031-0.001 0.091 0 0.178 0.021 0.256 0.057l-0.004-0.002c0.065 0.037 0.116 0.093 0.146 0.161l0.001 0.002c0.033 0.072 0.053 0.157 0.055 0.245l0 0.001v0.293c0 0.103 0.006 0.208 0 0.303h-0.006zM17.029 26.815h-0.515l-0.971 4.409h0.628l0.185-0.947h0.856l0.185 0.947h0.628l-0.996-4.409zM16.449 29.676l0.309-1.598h0.011l0.308 1.598h-0.628zM21.088 29.471h-0.011l-0.949-2.656h-0.604v4.409h0.628v-2.651h0.013l0.96 2.651h0.591v-4.409h-0.628v2.656zM24.926 26.815l-0.505 1.753h-0.013l-0.505-1.753h-0.665l0.863 2.545v1.863h0.628v-1.863l0.863-2.545h-0.665z"></path>
</symbol>
<symbol id="icon-grupo-3" viewBox="0 0 34 32">
<path  d="M5.643 31.382c0.025 0 0.047 0.010 0.064 0.025l-0-0 0.166 0.159c-0.13 0.128-0.285 0.23-0.458 0.299l-0.009 0.003c-0.21 0.076-0.435 0.113-0.663 0.108-0.010 0-0.022 0-0.033 0-0.211 0-0.414-0.037-0.602-0.105l0.012 0.004c-0.182-0.066-0.338-0.163-0.47-0.286l0.001 0.001c-0.128-0.121-0.231-0.267-0.3-0.432l-0.003-0.008c-0.067-0.162-0.106-0.351-0.106-0.549 0-0.006 0-0.011 0-0.017v0.001c-0-0.009-0-0.020-0-0.031 0-0.387 0.168-0.735 0.435-0.975l0.001-0.001c0.142-0.124 0.312-0.222 0.499-0.287 0.205-0.069 0.422-0.103 0.642-0.101 0.204-0.004 0.407 0.027 0.596 0.092 0.165 0.062 0.316 0.148 0.447 0.254l-0.139 0.17c-0.010 0.012-0.022 0.022-0.034 0.031l-0.001 0c-0.014 0.008-0.031 0.013-0.049 0.013-0.002 0-0.005-0-0.007-0l0 0c-0.022-0.001-0.043-0.008-0.061-0.018l0.001 0-0.075-0.045-0.104-0.058c-0.037-0.018-0.083-0.037-0.13-0.053l-0.009-0.003c-0.127-0.040-0.273-0.063-0.424-0.063-0.004 0-0.008 0-0.012 0h0.001c-0.005-0-0.012-0-0.018-0-0.159 0-0.311 0.028-0.452 0.079l0.009-0.003c-0.136 0.048-0.26 0.121-0.361 0.213-0.099 0.093-0.179 0.206-0.233 0.333l-0.002 0.006c-0.054 0.129-0.085 0.278-0.085 0.435 0 0.005 0 0.009 0 0.014v-0.001c-0 0.005-0 0.011-0 0.017 0 0.158 0.031 0.308 0.088 0.446l-0.003-0.008c0.055 0.132 0.134 0.245 0.231 0.338l0 0c0.095 0.091 0.211 0.163 0.338 0.207l0.007 0.002c0.136 0.049 0.281 0.073 0.428 0.072 0.085 0.001 0.17-0.004 0.253-0.014 0.211-0.022 0.399-0.107 0.549-0.234l-0.001 0.001c0.021-0.018 0.049-0.029 0.079-0.029h0zM10.441 30.583c0.003 0.192-0.035 0.382-0.112 0.561-0.068 0.163-0.174 0.311-0.313 0.436s-0.306 0.222-0.491 0.286c-0.189 0.064-0.406 0.101-0.632 0.101s-0.443-0.037-0.646-0.105l0.014 0.004c-0.189-0.067-0.351-0.165-0.489-0.288l0.001 0.001c-0.133-0.121-0.239-0.267-0.313-0.432l-0.003-0.008c-0.071-0.166-0.113-0.36-0.113-0.563s0.041-0.396 0.116-0.572l-0.004 0.010c0.071-0.164 0.178-0.314 0.316-0.442 0.139-0.12 0.305-0.214 0.488-0.276 0.188-0.065 0.406-0.103 0.631-0.103s0.443 0.038 0.646 0.107l-0.014-0.004c0.185 0.065 0.351 0.163 0.49 0.287 0.137 0.125 0.243 0.273 0.314 0.435 0.077 0.181 0.115 0.372 0.112 0.565zM10.005 30.583c0-0.007 0-0.016 0-0.025 0-0.153-0.029-0.3-0.082-0.434l0.003 0.008c-0.101-0.26-0.308-0.46-0.566-0.549l-0.007-0.002c-0.137-0.047-0.295-0.074-0.459-0.074s-0.322 0.027-0.469 0.077l0.010-0.003c-0.136 0.048-0.253 0.121-0.351 0.213l0.001-0c-0.097 0.092-0.174 0.205-0.222 0.332l-0.002 0.006c-0.050 0.134-0.080 0.289-0.080 0.451s0.029 0.317 0.082 0.46l-0.003-0.009c0.101 0.26 0.309 0.459 0.568 0.547l0.007 0.002c0.137 0.046 0.295 0.072 0.459 0.072s0.322-0.026 0.47-0.075l-0.011 0.003c0.136-0.048 0.253-0.12 0.352-0.212l-0.001 0c0.095-0.093 0.171-0.206 0.22-0.332l0.002-0.006c0.056-0.145 0.082-0.298 0.079-0.451zM13.715 31.057l0.044 0.101c0.017-0.036 0.031-0.069 0.048-0.101 0.019-0.039 0.037-0.072 0.056-0.103l-0.002 0.004 1.062-1.677c0.021-0.029 0.039-0.047 0.060-0.052s0.047-0.009 0.072-0.009c0.005 0 0.010 0 0.015 0l-0.001-0h0.314v2.727h-0.372v-2.090c-0.001-0.014-0.002-0.030-0.002-0.047s0.001-0.033 0.002-0.049l-0 0.002-1.068 1.7c-0.014 0.025-0.035 0.047-0.062 0.062s-0.059 0.023-0.091 0.023h-0.060c-0.032 0-0.064-0.007-0.091-0.022s-0.049-0.037-0.062-0.062l-1.099-1.711v2.189h-0.359v-2.722h0.314c0.003-0 0.007-0 0.011-0 0.027 0 0.053 0.003 0.078 0.010l-0.002-0c0.026 0.011 0.046 0.030 0.058 0.052l1.084 1.678c0.019 0.028 0.037 0.060 0.052 0.093l0.002 0.004zM17.71 30.921v1.021h-0.415v-2.723h0.926c0.011-0 0.023-0 0.036-0 0.171 0 0.337 0.022 0.495 0.063l-0.014-0.003c0.134 0.033 0.259 0.091 0.366 0.17 0.089 0.071 0.159 0.16 0.206 0.263l0.002 0.004c0.045 0.099 0.071 0.214 0.071 0.335 0 0.005-0 0.009-0 0.014v-0.001c0 0.003 0 0.006 0 0.010 0 0.248-0.117 0.469-0.299 0.61l-0.002 0.001c-0.104 0.080-0.227 0.142-0.361 0.178l-0.007 0.002c-0.14 0.040-0.301 0.063-0.467 0.063-0.012 0-0.024-0-0.035-0l0.002 0-0.503-0.007zM17.71 30.629h0.503c0.109 0.001 0.218-0.013 0.322-0.042 0.089-0.026 0.167-0.066 0.235-0.118l-0.002 0.001c0.117-0.097 0.191-0.243 0.191-0.406 0-0.001 0-0.002 0-0.004v0c0.005-0.076-0.009-0.151-0.042-0.222s-0.082-0.134-0.145-0.186c-0.138-0.093-0.309-0.149-0.492-0.149-0.024 0-0.047 0.001-0.070 0.003l0.003-0h-0.503v1.123zM23.294 31.946h-0.328c-0.002 0-0.004 0-0.006 0-0.032 0-0.061-0.009-0.086-0.025l0.001 0c-0.023-0.016-0.041-0.037-0.054-0.062l-0-0.001-0.282-0.659h-1.419l-0.293 0.659c-0.025 0.052-0.077 0.088-0.138 0.088-0.002 0-0.005-0-0.007-0h-0.328l1.246-2.727h0.432l1.263 2.727zM21.237 30.934h1.172l-0.494-1.11c-0.033-0.071-0.065-0.156-0.090-0.244l-0.003-0.012-0.048 0.143c-0.017 0.049-0.032 0.087-0.050 0.125l0.004-0.009-0.49 1.108zM25.089 29.232c0.025 0.012 0.045 0.028 0.062 0.049l0 0 1.818 2.056v-2.117h0.372v2.727h-0.208c-0.002 0-0.004 0-0.006 0-0.029 0-0.056-0.006-0.081-0.017l0.001 0c-0.026-0.013-0.048-0.030-0.066-0.050l-0-0-1.816-2.054c0.001 0.014 0.002 0.030 0.002 0.047s-0.001 0.033-0.002 0.049l0-0.002v2.027h-0.372v-2.727h0.22c0.002-0 0.004-0 0.006-0 0.025 0 0.049 0.005 0.071 0.014l-0.001-0zM30.402 30.862v1.083h-0.415v-1.083l-1.149-1.642h0.372c0.003-0 0.006-0 0.009-0 0.030 0 0.058 0.009 0.081 0.024l-0.001-0c0.022 0.017 0.041 0.037 0.055 0.060l0.001 0.001 0.719 1.059c0.050 0.070 0.092 0.15 0.125 0.235l0.002 0.007 0.054-0.117c0.023-0.048 0.046-0.089 0.073-0.128l-0.002 0.003 0.708-1.067c0.016-0.022 0.034-0.041 0.053-0.058l0-0c0.023-0.017 0.052-0.027 0.083-0.027 0.002 0 0.004 0 0.006 0h0.376l-1.151 1.65zM13.51 24.642c0.181 0.020 0.364 0.036 0.548 0.050 2.803-1.089 5.174-2.872 6.817-5.126s2.485-4.878 2.421-7.546l-3.089-2.684c0.628 2.84 0.334 5.776-0.848 8.479s-3.208 5.067-5.849 6.827z"></path>
<path  d="M12.407 24.518l0.083 0.014c2.822-1.754 4.974-4.203 6.176-7.030s1.402-5.904 0.571-8.83l-4.4-3.823c1.78 3.142 2.496 6.659 2.066 10.14s-1.989 6.786-4.496 9.529zM27.328 15.172c-0.747 2.931-2.563 5.574-5.177 7.537-0.714 0.544-1.519 1.053-2.367 1.491l-0.092 0.043c2.128-0.543 4.085-1.504 5.718-2.809s2.9-2.917 3.703-4.714l-1.784-1.549z"></path>
<path  d="M26.628 14.741l-2.541-2.207c-0.049 2.517-0.872 4.976-2.385 7.123s-3.66 3.902-6.217 5.084h0.012c0.57 0 1.139-0.030 1.706-0.088 2.39-0.848 4.502-2.196 6.147-3.926s2.771-3.785 3.278-5.985zM12.774 3.237l-3.031-2.637c-2.709 0.91-5.040 2.509-6.686 4.588s-2.531 4.542-2.54 7.066c0.010 2.789 1.090 5.495 3.070 7.69s4.745 3.754 7.859 4.43c2.78-2.943 4.407-6.578 4.646-10.38s-0.924-7.569-3.319-10.757zM33.631 14.335c-0.011-3.309-1.529-6.479-4.221-8.818s-6.342-3.658-10.15-3.668c-0.009-0-0.020-0-0.030-0-1.83 0-3.589 0.305-5.229 0.866l0.114-0.034 18.557 16.123c0.635-1.425 0.961-2.941 0.96-4.469z"></path>
</symbol>
<symbol id="icon-grupo-4" viewBox="0 0 65 32">
<path  d="M10.016 10.049h-0.002c-1.827 0-3.308 1.316-3.308 2.94v0.002c0 1.624 1.481 2.94 3.308 2.94h0.002c1.827 0 3.308-1.316 3.308-2.94v-0.002c0-1.624-1.481-2.94-3.308-2.94zM34.434 9.11c-0.005-2.255-1.015-4.417-2.81-6.012s-4.226-2.493-6.764-2.498c-2.538 0.004-4.972 0.902-6.767 2.497s-2.806 3.757-2.811 6.013v12.437s19.149-1.895 19.151-12.434v-0.002zM0 25.628c0.005 1.569 0.708 3.073 1.956 4.183s2.94 1.735 4.706 1.74c1.765-0.005 3.457-0.63 4.705-1.739s1.952-2.613 1.957-4.182v-8.653s-13.325 1.32-13.325 8.652zM6.662 27.178c-0.345 0-0.682-0.091-0.969-0.261s-0.511-0.413-0.643-0.696-0.167-0.595-0.099-0.896 0.233-0.577 0.477-0.794c0.244-0.217 0.555-0.364 0.893-0.424s0.689-0.029 1.008 0.088c0.319 0.117 0.591 0.316 0.783 0.571s0.294 0.555 0.294 0.861c0.001 0.204-0.044 0.406-0.131 0.595s-0.216 0.36-0.378 0.505c-0.162 0.145-0.355 0.259-0.567 0.338s-0.439 0.119-0.669 0.119v-0.006zM18.842 24.402v3.25h-0.67v-3.25h0.67zM20.137 25.791v0.522h-1.478v-0.522h1.478zM20.293 24.402v0.525h-1.634v-0.525h1.634zM23.351 25.952v0.154c0 0.247-0.033 0.469-0.1 0.665s-0.161 0.364-0.284 0.502c-0.119 0.134-0.265 0.24-0.43 0.312l-0.008 0.003c-0.16 0.069-0.345 0.109-0.54 0.109-0.007 0-0.014-0-0.021-0h0.001c-0.204 0-0.391-0.036-0.56-0.109-0.172-0.076-0.318-0.182-0.437-0.314l-0.001-0.001c-0.124-0.141-0.222-0.308-0.285-0.492l-0.003-0.010c-0.064-0.19-0.101-0.409-0.101-0.636 0-0.010 0-0.020 0-0.030l-0 0.002v-0.154c0-0.248 0.034-0.47 0.101-0.665 0.067-0.196 0.161-0.364 0.283-0.502 0.123-0.138 0.269-0.244 0.438-0.317 0.17-0.073 0.356-0.109 0.56-0.109 0.205 0 0.392 0.037 0.56 0.109 0.17 0.073 0.316 0.179 0.438 0.317 0.123 0.138 0.219 0.306 0.286 0.502 0.068 0.195 0.103 0.417 0.103 0.665zM22.675 26.106v-0.158c0-0.173-0.016-0.324-0.047-0.455s-0.077-0.241-0.138-0.33c-0.109-0.164-0.293-0.27-0.502-0.27-0.008 0-0.015 0-0.023 0l0.001-0c-0.004-0-0.008-0-0.013-0-0.105 0-0.204 0.026-0.292 0.071l0.004-0.002c-0.090 0.049-0.165 0.117-0.22 0.199l-0.001 0.002c-0.059 0.089-0.105 0.199-0.136 0.33s-0.047 0.283-0.047 0.455v0.158c0 0.171 0.016 0.323 0.047 0.455s0.077 0.242 0.138 0.333c0.061 0.089 0.135 0.157 0.223 0.203s0.188 0.069 0.301 0.069c0.113 0 0.213-0.023 0.301-0.069s0.161-0.114 0.221-0.203c0.059-0.091 0.105-0.202 0.136-0.333 0.031-0.132 0.047-0.284 0.047-0.455zM25.525 26.802c0-0.002 0-0.004 0-0.007 0-0.054-0.010-0.105-0.028-0.152l0.001 0.003c-0.020-0.053-0.052-0.097-0.093-0.13l-0.001-0c-0.046-0.040-0.111-0.080-0.194-0.118s-0.191-0.079-0.324-0.121c-0.172-0.055-0.311-0.11-0.446-0.172l0.026 0.011c-0.133-0.060-0.247-0.129-0.352-0.211l0.004 0.003c-0.096-0.076-0.175-0.169-0.235-0.274l-0.002-0.005c-0.054-0.102-0.085-0.222-0.085-0.35 0-0.006 0-0.012 0-0.019l-0 0.001c0-0.135 0.030-0.258 0.089-0.368 0.062-0.115 0.146-0.211 0.248-0.284l0.002-0.002c0.107-0.080 0.234-0.142 0.379-0.185 0.147-0.043 0.309-0.065 0.484-0.065 0.24 0 0.449 0.043 0.627 0.129s0.317 0.205 0.415 0.355c0.1 0.15 0.15 0.322 0.15 0.516h-0.665c0-0.003 0-0.007 0-0.011 0-0.088-0.022-0.17-0.061-0.242l0.001 0.003c-0.041-0.075-0.102-0.134-0.177-0.171l-0.002-0.001c-0.080-0.039-0.175-0.062-0.274-0.062-0.009 0-0.017 0-0.026 0l0.001-0c-0.007-0-0.015-0-0.022-0-0.097 0-0.189 0.020-0.272 0.056l0.004-0.002c-0.072 0.030-0.131 0.078-0.173 0.14l-0.001 0.001c-0.036 0.053-0.058 0.12-0.058 0.191 0 0.002 0 0.004 0 0.006v-0c0 0.055 0.013 0.105 0.040 0.15 0.028 0.045 0.070 0.086 0.125 0.125s0.123 0.075 0.203 0.109c0.080 0.034 0.173 0.068 0.279 0.1 0.177 0.054 0.333 0.114 0.466 0.181 0.135 0.067 0.249 0.142 0.339 0.225s0.159 0.178 0.205 0.284c0.044 0.102 0.069 0.22 0.069 0.344 0 0.005-0 0.010-0 0.016v-0.001c0 0.007 0 0.016 0 0.025 0 0.261-0.126 0.492-0.32 0.637l-0.002 0.002c-0.106 0.078-0.231 0.139-0.365 0.174l-0.008 0.002c-0.144 0.040-0.306 0.060-0.484 0.060-0.169-0-0.333-0.023-0.488-0.065l0.013 0.003c-0.162-0.045-0.304-0.111-0.431-0.197l0.005 0.003c-0.126-0.086-0.228-0.196-0.304-0.33s-0.114-0.292-0.114-0.475h0.672c0 0.101 0.016 0.187 0.047 0.257s0.075 0.126 0.132 0.17c0.058 0.042 0.127 0.075 0.201 0.093l0.004 0.001c0.080 0.019 0.168 0.029 0.263 0.029 0.008 0 0.016 0 0.025 0 0.094 0 0.184-0.018 0.266-0.051l-0.005 0.002c0.132-0.052 0.223-0.178 0.223-0.326 0-0.002-0-0.005-0-0.007v0zM28.103 24.402v3.25h-0.667v-3.25h0.667zM29.103 24.402v0.525h-2.652v-0.525h2.652zM31.666 27.13v0.522h-1.73v-0.522h1.73zM30.154 24.402v3.25h-0.67v-3.25h0.67zM31.44 25.726v0.509h-1.504v-0.509h1.504zM31.663 24.402v0.525h-1.728v-0.525h1.728zM32.056 24.402h1.212c0.249 0 0.462 0.037 0.641 0.112 0.18 0.074 0.318 0.185 0.415 0.33s0.145 0.325 0.145 0.538c0 0.174-0.030 0.324-0.089 0.449s-0.143 0.228-0.246 0.309l-0.002 0.001c-0.106 0.082-0.23 0.147-0.373 0.197l-0.212 0.112h-1.054l-0.004-0.522h0.783c0.118 0 0.215-0.021 0.292-0.062s0.135-0.1 0.174-0.174c0.038-0.072 0.060-0.157 0.060-0.247 0-0.004-0-0.008-0-0.012v0.001c0-0.104-0.019-0.194-0.058-0.27s-0.097-0.134-0.176-0.174c-0.081-0.038-0.175-0.060-0.274-0.060-0.008 0-0.016 0-0.024 0l0.001-0h-0.542v2.725h-0.67v-3.25zM33.873 27.652l-0.741-1.449 0.708-0.005 0.75 1.422v0.031h-0.717zM37.389 26.494h-0.828v-0.522h0.828c0.008 0 0.017 0 0.026 0 0.104 0 0.203-0.023 0.292-0.064l-0.004 0.002c0.080-0.043 0.139-0.103 0.176-0.179s0.056-0.161 0.056-0.257c0-0.097-0.019-0.187-0.056-0.27s-0.096-0.15-0.176-0.201-0.185-0.076-0.313-0.076h-0.596v2.725h-0.67v-3.25h1.266c0.254 0 0.473 0.046 0.654 0.138 0.183 0.091 0.323 0.216 0.42 0.377s0.145 0.344 0.145 0.551c0 0.21-0.048 0.391-0.145 0.545s-0.237 0.272-0.42 0.355c-0.181 0.083-0.4 0.125-0.654 0.125zM41.251 27.13v0.522h-1.73v-0.522h1.73zM39.739 24.402v3.25h-0.67v-3.25h0.67zM41.025 25.726v0.509h-1.504v-0.509h1.504zM41.248 24.402v0.525h-1.728v-0.525h1.728zM43.139 24.402v3.25h-0.667v-3.25h0.667zM44.139 24.402v0.525h-2.652v-0.525h2.652zM46.701 27.13v0.522h-1.73v-0.522h1.73zM45.19 24.402v3.25h-0.67v-3.25h0.67zM46.476 25.726v0.509h-1.504v-0.509h1.504zM46.699 24.402v0.525h-1.728v-0.525h1.728zM47.092 24.402h1.212c0.249 0 0.462 0.037 0.641 0.112 0.18 0.074 0.318 0.185 0.415 0.33s0.145 0.325 0.145 0.538c0 0.174-0.030 0.324-0.089 0.449s-0.143 0.228-0.246 0.309l-0.002 0.001c-0.106 0.082-0.23 0.147-0.373 0.197l-0.212 0.112h-1.054l-0.005-0.522h0.784c0.118 0 0.215-0.021 0.292-0.062s0.135-0.1 0.174-0.174c0.038-0.072 0.060-0.157 0.060-0.247 0-0.004-0-0.008-0-0.012v0.001c0-0.104-0.019-0.194-0.058-0.27s-0.097-0.134-0.176-0.174c-0.081-0.038-0.175-0.060-0.274-0.060-0.008 0-0.016 0-0.024 0l0.001-0h-0.542v2.725h-0.67v-3.25zM48.909 27.652l-0.741-1.449 0.708-0.005 0.75 1.422v0.031h-0.717zM51.713 26.802c0-0.002 0-0.004 0-0.007 0-0.054-0.010-0.105-0.028-0.152l0.001 0.003c-0.020-0.053-0.052-0.097-0.093-0.13l-0.001-0c-0.046-0.040-0.111-0.080-0.194-0.118s-0.191-0.079-0.324-0.121c-0.172-0.055-0.311-0.11-0.446-0.172l0.026 0.011c-0.133-0.060-0.247-0.129-0.352-0.211l0.004 0.003c-0.096-0.076-0.175-0.169-0.235-0.274l-0.002-0.005c-0.054-0.102-0.085-0.222-0.085-0.35 0-0.006 0-0.012 0-0.019l-0 0.001c0-0.135 0.030-0.258 0.089-0.368 0.062-0.115 0.146-0.211 0.248-0.284l0.002-0.002c0.107-0.080 0.234-0.142 0.379-0.185 0.147-0.043 0.309-0.065 0.484-0.065 0.24 0 0.449 0.043 0.627 0.129s0.317 0.205 0.415 0.355c0.1 0.15 0.15 0.322 0.15 0.516h-0.665c0-0.003 0-0.007 0-0.011 0-0.088-0.022-0.17-0.061-0.242l0.001 0.003c-0.041-0.075-0.102-0.134-0.177-0.171l-0.002-0.001c-0.080-0.039-0.175-0.062-0.274-0.062-0.009 0-0.017 0-0.026 0l0.001-0c-0.007-0-0.014-0-0.022-0-0.097 0-0.189 0.020-0.272 0.056l0.004-0.002c-0.072 0.030-0.131 0.078-0.173 0.14l-0.001 0.001c-0.036 0.053-0.058 0.12-0.058 0.191 0 0.002 0 0.004 0 0.006v-0c0 0.055 0.013 0.105 0.040 0.15s0.070 0.086 0.125 0.125 0.123 0.075 0.203 0.109c0.080 0.034 0.173 0.068 0.279 0.1 0.177 0.054 0.333 0.114 0.467 0.181s0.249 0.142 0.339 0.225 0.159 0.178 0.205 0.284c0.044 0.102 0.069 0.22 0.069 0.344 0 0.005-0 0.010-0 0.016v-0.001c0 0.007 0 0.016 0 0.025 0 0.261-0.126 0.492-0.32 0.637l-0.002 0.002c-0.106 0.078-0.231 0.139-0.365 0.174l-0.008 0.002c-0.144 0.040-0.306 0.060-0.484 0.060-0.169-0-0.333-0.023-0.488-0.065l0.013 0.003c-0.162-0.045-0.304-0.111-0.431-0.197l0.005 0.003c-0.126-0.086-0.228-0.196-0.304-0.33s-0.114-0.292-0.114-0.475h0.672c0 0.101 0.016 0.187 0.047 0.257s0.075 0.126 0.132 0.17c0.058 0.042 0.127 0.075 0.201 0.093l0.004 0.001c0.080 0.019 0.168 0.029 0.263 0.029 0.008 0 0.016 0 0.025 0 0.094 0 0.184-0.018 0.266-0.051l-0.005 0.002c0.132-0.052 0.223-0.178 0.223-0.326 0-0.002-0-0.005-0-0.007v0z"></path>
</symbol>
</defs>
</svg>
